# xmcd
#
# Track frame offsets:
#	150
#	12637
#	31262
#	50145
#	61375
#	75150
#	95877
#	109745
#	127930
#	141595
#
# Disc length: 2150 seconds
#
# Revision: 3
# Processed by: cddbd v1.5.2PL0 Copyright (c) Steve Scherf et al.
# Submitted via: audiograbber 1.83.01
#
DISCID=8908640a
DTITLE=Willie Dixon - I Think I Got The Blues
DYEAR=1998
DGENRE=Blues
TTITLE0=Bring It On Home
TTITLE1=I Don't Trust Nobody
TTITLE2=God's Gift To Man
TTITLE3=Hoo Doo Doctor
TTITLE4=My Babe
TTITLE5=Wang Dang Doodle
TTITLE6=When I Make Love
TTITLE7=I Think I Got The Blues
TTITLE8=But It Sure Is Fun
TTITLE9=I Just Want To Make Love To You
EXTD=
EXTT0=
EXTT1=
EXTT2=
EXTT3=
EXTT4=
EXTT5=
EXTT6=
EXTT7=
EXTT8=
EXTT9=
PLAYORDER=
